<mxfile host="app.diagrams.net" agent="Mozilla/5.0 (Windows NT 10.0; Win64; x64) AppleWebKit/537.36 (KHTML, like Gecko) Chrome/140.0.0.0 Safari/537.36" version="28.2.5">
  <diagram name="Page-1" id="s1jKUjSD5Y72kbjTPGfm">
    <mxGraphModel dx="1389" dy="760" grid="1" gridSize="10" guides="1" tooltips="1" connect="1" arrows="1" fold="1" page="1" pageScale="1" pageWidth="850" pageHeight="1100" math="0" shadow="0">
      <root>
        <mxCell id="0" />
        <mxCell id="1" parent="0" />
        <mxCell id="AfvaLhhhW29tNMUajsGk-1" value="User" style="shape=umlActor;verticalLabelPosition=bottom;verticalAlign=top;html=1;" parent="1" vertex="1">
          <mxGeometry x="220" y="270" width="30" height="60" as="geometry" />
        </mxCell>
        <mxCell id="AfvaLhhhW29tNMUajsGk-2" value="" style="html=1;whiteSpace=wrap;" parent="1" vertex="1">
          <mxGeometry x="310" y="110" width="320" height="350" as="geometry" />
        </mxCell>
        <mxCell id="AfvaLhhhW29tNMUajsGk-3" value="Password Manager" style="text;html=1;align=center;verticalAlign=middle;whiteSpace=wrap;rounded=0;" parent="1" vertex="1">
          <mxGeometry x="390" y="120" width="60" height="30" as="geometry" />
        </mxCell>
        <mxCell id="AfvaLhhhW29tNMUajsGk-4" value="Make password" style="ellipse;whiteSpace=wrap;html=1;" parent="1" vertex="1">
          <mxGeometry x="320" y="280" width="80" height="40" as="geometry" />
        </mxCell>
        <mxCell id="AfvaLhhhW29tNMUajsGk-5" value="Type in password" style="ellipse;whiteSpace=wrap;html=1;" parent="1" vertex="1">
          <mxGeometry x="330" y="400" width="80" height="40" as="geometry" />
        </mxCell>
        <mxCell id="AfvaLhhhW29tNMUajsGk-6" value="" style="html=1;whiteSpace=wrap;" parent="1" vertex="1">
          <mxGeometry x="750" y="280" width="100" height="140" as="geometry" />
        </mxCell>
        <mxCell id="AfvaLhhhW29tNMUajsGk-7" value="Password database" style="text;html=1;align=center;verticalAlign=middle;whiteSpace=wrap;rounded=0;" parent="1" vertex="1">
          <mxGeometry x="770" y="290" width="60" height="30" as="geometry" />
        </mxCell>
        <mxCell id="AfvaLhhhW29tNMUajsGk-9" value="" style="endArrow=none;html=1;edgeStyle=orthogonalEdgeStyle;rounded=0;entryX=0;entryY=0.5;entryDx=0;entryDy=0;exitX=1;exitY=0.488;exitDx=0;exitDy=0;exitPerimeter=0;" parent="1" source="AfvaLhhhW29tNMUajsGk-4" target="AfvaLhhhW29tNMUajsGk-13" edge="1">
          <mxGeometry relative="1" as="geometry">
            <mxPoint x="420" y="339.5" as="sourcePoint" />
            <mxPoint x="580" y="339.5" as="targetPoint" />
          </mxGeometry>
        </mxCell>
        <mxCell id="AfvaLhhhW29tNMUajsGk-13" value="Store password (in plaintext unsafely at first)" style="ellipse;whiteSpace=wrap;html=1;" parent="1" vertex="1">
          <mxGeometry x="410" y="320" width="120" height="80" as="geometry" />
        </mxCell>
        <mxCell id="AfvaLhhhW29tNMUajsGk-14" value="" style="endArrow=none;html=1;edgeStyle=orthogonalEdgeStyle;rounded=0;" parent="1" target="AfvaLhhhW29tNMUajsGk-6" edge="1">
          <mxGeometry relative="1" as="geometry">
            <mxPoint x="530" y="340" as="sourcePoint" />
            <mxPoint x="520" y="340" as="targetPoint" />
          </mxGeometry>
        </mxCell>
        <mxCell id="AfvaLhhhW29tNMUajsGk-15" value="" style="endArrow=none;html=1;edgeStyle=orthogonalEdgeStyle;rounded=0;entryX=0;entryY=0.5;entryDx=0;entryDy=0;exitX=0.5;exitY=0.5;exitDx=0;exitDy=0;exitPerimeter=0;" parent="1" source="AfvaLhhhW29tNMUajsGk-1" target="AfvaLhhhW29tNMUajsGk-4" edge="1">
          <mxGeometry relative="1" as="geometry">
            <mxPoint x="240" y="300" as="sourcePoint" />
            <mxPoint x="280" y="300" as="targetPoint" />
          </mxGeometry>
        </mxCell>
        <mxCell id="AfvaLhhhW29tNMUajsGk-16" value="" style="endArrow=none;html=1;edgeStyle=orthogonalEdgeStyle;rounded=0;entryX=0;entryY=0.5;entryDx=0;entryDy=0;exitX=0.5;exitY=0.5;exitDx=0;exitDy=0;exitPerimeter=0;" parent="1" source="AfvaLhhhW29tNMUajsGk-1" target="AfvaLhhhW29tNMUajsGk-5" edge="1">
          <mxGeometry relative="1" as="geometry">
            <mxPoint x="250" y="410" as="sourcePoint" />
            <mxPoint x="345" y="450" as="targetPoint" />
            <Array as="points">
              <mxPoint x="240" y="300" />
              <mxPoint x="240" y="420" />
            </Array>
          </mxGeometry>
        </mxCell>
        <mxCell id="AfvaLhhhW29tNMUajsGk-17" value="Encrypt Password using a hash function" style="ellipse;whiteSpace=wrap;html=1;" parent="1" vertex="1">
          <mxGeometry x="480" y="140" width="125" height="70" as="geometry" />
        </mxCell>
        <mxCell id="AfvaLhhhW29tNMUajsGk-18" value="" style="endArrow=none;html=1;edgeStyle=orthogonalEdgeStyle;rounded=0;exitX=1;exitY=0.5;exitDx=0;exitDy=0;entryX=0.5;entryY=0;entryDx=0;entryDy=0;" parent="1" source="AfvaLhhhW29tNMUajsGk-17" target="AfvaLhhhW29tNMUajsGk-6" edge="1">
          <mxGeometry relative="1" as="geometry">
            <mxPoint x="510" y="194.32999999999998" as="sourcePoint" />
            <mxPoint x="670" y="194.32999999999998" as="targetPoint" />
          </mxGeometry>
        </mxCell>
        <mxCell id="AfvaLhhhW29tNMUajsGk-21" value="Make account" style="ellipse;whiteSpace=wrap;html=1;" parent="1" vertex="1">
          <mxGeometry x="360" y="210" width="80" height="40" as="geometry" />
        </mxCell>
        <mxCell id="AfvaLhhhW29tNMUajsGk-27" value="" style="endArrow=none;html=1;edgeStyle=orthogonalEdgeStyle;rounded=0;entryX=0;entryY=0.5;entryDx=0;entryDy=0;exitX=0.5;exitY=0;exitDx=0;exitDy=0;exitPerimeter=0;" parent="1" source="AfvaLhhhW29tNMUajsGk-1" target="AfvaLhhhW29tNMUajsGk-21" edge="1">
          <mxGeometry relative="1" as="geometry">
            <mxPoint x="160" y="220" as="sourcePoint" />
            <mxPoint x="320" y="220" as="targetPoint" />
          </mxGeometry>
        </mxCell>
        <mxCell id="AfvaLhhhW29tNMUajsGk-30" value="" style="endArrow=none;html=1;edgeStyle=orthogonalEdgeStyle;rounded=0;exitX=1;exitY=0.5;exitDx=0;exitDy=0;entryX=0;entryY=0.5;entryDx=0;entryDy=0;" parent="1" source="AfvaLhhhW29tNMUajsGk-21" target="AfvaLhhhW29tNMUajsGk-31" edge="1">
          <mxGeometry relative="1" as="geometry">
            <mxPoint x="390" y="290" as="sourcePoint" />
            <mxPoint x="470" y="110" as="targetPoint" />
          </mxGeometry>
        </mxCell>
        <mxCell id="AfvaLhhhW29tNMUajsGk-31" value="Store password" style="ellipse;whiteSpace=wrap;html=1;" parent="1" vertex="1">
          <mxGeometry x="525" y="265" width="80" height="40" as="geometry" />
        </mxCell>
        <mxCell id="AfvaLhhhW29tNMUajsGk-32" value="" style="endArrow=none;html=1;edgeStyle=orthogonalEdgeStyle;rounded=0;exitX=1;exitY=0.5;exitDx=0;exitDy=0;entryX=0;entryY=0.25;entryDx=0;entryDy=0;" parent="1" source="AfvaLhhhW29tNMUajsGk-31" target="AfvaLhhhW29tNMUajsGk-6" edge="1">
          <mxGeometry relative="1" as="geometry">
            <mxPoint x="640" y="310" as="sourcePoint" />
            <mxPoint x="725" y="365" as="targetPoint" />
          </mxGeometry>
        </mxCell>
      </root>
    </mxGraphModel>
  </diagram>
</mxfile>
